# xmcd
#
# Track frame offsets: 
#        150
#        13465
#        30453
#        43285
#        65946
#
# Disc length: 978 seconds
#
# Revision: 0
# Processed by: cddbd v1.5.2PL0 Copyright (c) Steve Scherf et al.
# Submitted via: ExactAudioCopyFreeDBPlugin 1.0
#
DISCID=4803d005
DTITLE=The Trade-Offs - Red
DYEAR=2012
DGENRE=Blues
TTITLE0=Wasted Days
TTITLE1=Simple Man
TTITLE2=Red
TTITLE3=Cry No More
TTITLE4=Mr-Mrs Q
EXTD=
EXTT0=
EXTT1=
EXTT2=
EXTT3=
EXTT4=
PLAYORDER=
